<svg width="256" height="256" viewBox="0 0 256 256" fill="none" xmlns="http://www.w3.org/2000/svg">
<path d="M122.187 110.478C131.396 108.779 141.292 106.442 151.877 103.469C156.428 102.195 161.403 100.867 166.801 99.4867L175.216 132.619C170.029 134 165.213 135.327 160.768 136.602C148.066 140.212 135.206 143.027 122.187 145.044V236H88.0521V147.434C83.2891 147.434 78.4202 147.487 73.4455 147.593H69V113.504C74.2923 113.504 80.643 113.398 88.0521 113.186V100.124C88.0521 94.177 88.6872 88.4425 89.9573 82.9204C94.7204 61.7876 105.464 45.2743 122.187 33.3805C134.889 24.4602 149.072 20 164.737 20C178.709 20 191.463 23.6106 203 30.8319L183.948 59.1858C178.021 55.8938 171.617 54.2478 164.737 54.2478C155.74 54.2478 147.749 56.9027 140.763 62.2124C133.777 67.5221 128.644 74.4248 125.363 82.9204H125.204C125.098 83.4513 124.939 84.0354 124.727 84.6726C124.516 85.3097 124.304 86 124.092 86.7434C123.987 87.0619 123.881 87.3805 123.775 87.6991C123.775 87.8053 123.722 88.0177 123.616 88.3363C123.51 88.9735 123.404 89.6106 123.299 90.2478C122.558 93.4336 122.187 96.7257 122.187 100.124V110.478Z" fill="#1B1F28"/>
</svg>
