<svg width="1156" height="583" viewBox="0 0 1156 583" fill="none" xmlns="http://www.w3.org/2000/svg">
<path d="M105.146 252.913C120.864 250.022 137.756 246.048 155.823 240.989C163.591 238.821 172.083 236.563 181.296 234.214L195.659 290.582C186.807 292.93 178.586 295.188 170.999 297.356C149.319 303.499 127.368 308.287 105.146 311.719V466.458H46.8823V315.784C38.7524 315.784 30.4419 315.875 21.9507 316.055H14.3628V258.062C23.396 258.062 34.2358 257.881 46.8823 257.52V235.298C46.8823 225.181 47.9663 215.425 50.1343 206.031C58.2642 170.079 76.6016 141.985 105.146 121.751C126.826 106.575 151.035 98.9873 177.773 98.9873C201.621 98.9873 223.391 105.13 243.083 117.415L210.564 165.652C200.447 160.052 189.517 157.251 177.773 157.251C162.417 157.251 148.777 161.768 136.853 170.801C124.929 179.834 116.167 191.578 110.566 206.031H110.295C110.115 206.934 109.844 207.928 109.482 209.012C109.121 210.096 108.76 211.27 108.398 212.535C108.218 213.077 108.037 213.619 107.856 214.161C107.856 214.341 107.766 214.703 107.585 215.245C107.405 216.329 107.224 217.413 107.043 218.497C105.779 223.917 105.146 229.517 105.146 235.298V252.913ZM300.806 206.573L318.962 206.844V465.374H262.595V206.573H300.806ZM318.962 153.458C318.962 161.226 316.162 167.911 310.562 173.511C305.142 178.931 298.547 181.641 290.779 181.641C283.01 181.641 276.326 178.931 270.725 173.511C265.305 167.911 262.595 161.226 262.595 153.458C262.595 145.689 265.305 139.095 270.725 133.675C276.326 128.074 283.01 125.274 290.779 125.274C298.547 125.274 305.142 128.074 310.562 133.675C316.162 139.095 318.962 145.689 318.962 153.458ZM596.462 465.645H540.366V330.418H540.095V332.857C540.095 313.707 533.862 297.356 521.396 283.807C508.931 270.257 493.845 263.482 476.14 263.482H429.529V465.645H373.433V207.386H434.678V207.657H470.72L476.14 207.386C478.127 207.386 480.024 207.476 481.831 207.657H482.102L488.606 208.199C519.138 211.993 544.341 225.181 564.214 247.764C584.268 270.347 594.927 297.898 596.191 330.418C596.372 331.141 596.462 331.954 596.462 332.857V465.645ZM870.168 207.386V465.916H814.072L808.923 465.645H773.152L767.732 465.916C765.745 465.916 763.757 465.826 761.77 465.645H761.499L755.266 465.103C724.734 461.128 699.441 447.94 679.387 425.538C659.514 402.955 648.855 375.403 647.41 342.884V207.386H703.506V340.445C703.506 359.595 709.739 375.945 722.205 389.495C734.851 403.045 750.027 409.82 767.732 409.82H814.072V207.386H870.168ZM934.666 207.386H1023.82C1044.96 207.386 1064.2 212.806 1081.55 223.646C1099.07 234.485 1112.98 249.029 1123.28 267.276C1133.76 285.342 1139 305.486 1139 327.708C1139 349.749 1133.76 369.893 1123.28 388.14C1112.98 406.207 1099.07 420.66 1081.55 431.5C1064.2 442.339 1044.96 447.759 1023.82 447.759H973.418V543.15H919.761V207.657H934.666V207.386ZM973.418 394.102H1023.82C1040.81 394.102 1055.26 387.598 1067.18 374.59C1079.29 361.583 1085.34 345.955 1085.34 327.708C1085.34 309.28 1079.29 293.562 1067.18 280.555C1055.26 267.547 1040.81 261.043 1023.82 261.043C1022.74 261.043 1021.66 261.133 1020.57 261.314H973.418V394.102Z" fill="#FEFEFE"/>
</svg>
